PathFileType	4	(X/Y/Z)	C:/Users/beibeiliu/ov580/test_trc\sequence.39_training_dense_left.trc
DataRate	CameraRate	NumFrames	NumMarkers	Units	OrigDataRate	OrigDataStartFrame	OrigNumFrames
120	120	23	19	mm	120	251	400
Frame#	Time	ThumbCMC			ThumbMCP			ThumbIP			ThumbTip			IndexMCP			IndexPIP			IndexTip			MiddleMCP			MiddlePIP			MiddleTip			RingMCP			RingPIP			RingTip			PinkyMCP			PinkyPIP			PinkyTip			BackHand1			BackHand2			BackHand3	
		X0	Y0	Z0	X1	Y1	Z1	X2	Y2	Z2	X3	Y3	Z3	X4	Y4	Z4	X5	Y5	Z5	X6	Y6	Z6	X7	Y7	Z7	X8	Y8	Z8	X9	Y9	Z9	X10	Y10	Z10	X11	Y11	Z11	X12	Y12	Z12	X13	Y13	Z13	X14	Y14	Z14	X15	Y15	Z15	X16	Y16	Z16	X17	Y17	Z17	X18	Y18	Z18	
250	2.08333	-223.328	22.5995	44.0181	-219.894	35.1861	15.6094	-210.167	28.1342	-6.34984	-195.501	20.5196	-18.4412	-214.909	-0.777781	-18.27	-190.979	3.95228	-32.3306	-172.38	28.2494	-16.8556	-195.769	-15.1953	-17.8298	-175.63	1.81003	-28.1995	-162.109	19.8392	-7.81586	-186.707	-23.2191	-4.44623	-163.583	-8.46991	-13.8366	-159.66	13.1509	1.11495	-177.162	-31.4418	10.8111	-159.777	-16.8328	-1.10977	-155.281	5.54304	6.33608	-211.805	-26.2047	39.2932	-215.629	-18.205	64.4869	-228.081	-5.06312	45.5848	
251	2.09167	-224.175	27.5432	45.2629	-217.165	36.7626	17.4667	-205.709	27.8394	-4.67746	-189.276	13.7021	-15.3569	-211.281	-2.20529	-18.7052	-189.745	5.94643	-32.9803	-173.209	25.6311	-22.9232	-197.178	-13.1234	-17.1047	-174.301	-1.90275	-28.7252	-159.878	20.0339	-11.3132	-184.756	-24.9008	-7.20193	-166.129	-8.47301	-17.2698	-156.189	12.3456	-0.580723	-177.676	-31.011	12.0622	-160.69	-19.2793	-3.18838	-154.36	7.08446	3.65022	-211.877	-25.9108	36.8866	-216.75	-19.1756	64.9029	-228.151	-7.78648	44.3121	
252	2.1	-222.17	24.849	45.9149	-217.388	34.2326	12.5693	-205.527	27.8421	-5.05927	-186.253	14.228	-16.0757	-213.577	-1.7463	-16.2562	-187.299	4.95023	-32.272	-170.081	25.4828	-22.0326	-195.265	-15.8074	-17.5052	-175.386	-2.06104	-30.3716	-158.394	22.8513	-12.4884	-185.076	-25.0379	-5.52224	-167.163	-11.4897	-17.1039	-153.585	9.39934	-4.4372	-173.221	-34.3269	10.2038	-161.361	-16.2799	-3.86282	-155.395	5.56537	1.4905	-209.991	-24.8521	39.5754	-216.652	-19.345	64.5808	-229.334	-6.16084	43.999	
253	2.10833	-224.08	28.4795	45.7168	-216.115	32.9765	15.7398	-205.142	26.7531	-6.86303	-184.862	13.089	-17.6279	-209.378	-6.20836	-17.0872	-192.009	3.57466	-33.649	-173.269	25.7427	-26.3018	-195.182	-15.7043	-17.6369	-176.518	-3.95623	-31.8057	-158.04	19.0853	-16.6304	-181.689	-26.399	-6.67534	-163.213	-12.2186	-16.5271	-153.222	12.3656	-3.6105	-173.658	-33.95	10.5024	-159.921	-17.7101	-3.87083	-150.677	2.00195	-2.136	-208.679	-28.2613	37.5404	-214.409	-21.9305	62.8304	-228.351	-3.94734	41.9425	
254	2.11667	-223.56	22.8203	41.9486	-217.664	33.4534	12.7741	-205.758	25.9794	-5.36472	-184.417	9.25822	-15.4564	-212.488	-3.93613	-16.5108	-191.896	4.50863	-34.2497	-172.514	26.7439	-23.919	-196.34	-18.73	-12.9044	-175.354	-5.11066	-31.3543	-157.176	22.1209	-15.8066	-183.697	-27.2361	-3.92533	-164.307	-8.95268	-18.1055	-153.194	11.952	-4.67567	-172.363	-34.5565	12.3205	-161.955	-19.9119	-3.77427	-153.157	4.05441	-2.11772	-209.185	-27.0726	37.9626	-213.442	-19.1711	63.3482	-228.355	-4.8289	44.7758	
255	2.125	-222.304	21.7591	42.7197	-217.826	31.9558	15.6195	-206.124	25.2211	-5.6571	-185.604	8.19043	-14.1146	-212.752	-5.85798	-15.3376	-188.765	2.61005	-33.0328	-171.844	21.9925	-25.0682	-197.848	-15.5267	-16.4486	-175.223	-7.35963	-29.4337	-156.829	17.6991	-16.3941	-186.002	-25.987	-4.16298	-162.74	-11.1151	-16.8936	-155.069	13.6422	-5.89138	-173.867	-33.8526	9.28419	-158.78	-22.6888	-1.98207	-150.987	3.71468	-0.264464	-208.383	-26.741	38.8618	-214.026	-19.6774	64.3953	-227.053	-7.96873	47.0435	
256	2.13333	-224.458	24.1353	45.4951	-218.683	32.2732	14.6543	-206.657	20.8479	-3.5392	-186.216	7.5362	-17.1218	-214.38	-4.65262	-14.4308	-191.266	5.57352	-34.469	-172.418	23.8142	-23.7736	-195.708	-20.1516	-12.6193	-175.09	-7.44052	-30.2682	-158.068	16.8914	-18.3112	-184.258	-25.8234	-6.51657	-164.844	-12.472	-17.2649	-156.059	10.5885	-5.76656	-174.173	-34.9458	11.6426	-163.358	-20.3213	-4.50077	-154.733	1.97713	-1.19312	-206.982	-28.2649	39.2192	-214.668	-21.6889	65.2869	-226.815	-10.0739	47.5352	
257	2.14167	-225.695	24.3475	45.2229	-220.256	30.8953	13.4286	-208.066	22.3509	-2.36544	-188.7	9.67505	-14.9657	-213.122	-6.41108	-19.1683	-189.021	1.92802	-31.9119	-173.579	20.5096	-23.8777	-199.126	-17.7569	-16.6388	-172.38	-4.69987	-29.5694	-160.262	19.186	-17.2512	-186.154	-28.3776	-2.32402	-165.82	-13.8788	-17.219	-159.259	10.8151	-7.58325	-173.775	-34.3006	11.9621	-161.183	-18.6533	-3.06558	-152.555	3.62154	0.469042	-206.816	-28.8558	38.0094	-214.103	-23.4914	66.2907	-225.642	-11.5198	42.1431	
258	2.15	-224.861	21.1177	44.4939	-218.907	30.8071	18.8667	-208.808	25.0817	-7.96922	-191.237	12.1272	-18.1914	-212.189	-7.6823	-16.6508	-191.237	0.196312	-32.4835	-174.371	20.8082	-24.7849	-196.106	-21.3728	-14.396	-174.797	-3.12573	-30.6332	-157.719	17.5139	-13.1145	-184.401	-27.5972	-5.52484	-167.149	-10.2946	-18.6963	-155.987	12.7034	-3.82475	-174.928	-33.953	8.9486	-158.614	-18.7549	-3.7368	-155.551	0.950797	0.96574	-206.563	-31.2118	41.6303	-215.419	-22.4696	64.0834	-226.276	-11.1657	44.5556	
259	2.15833	-225.484	21.7422	41.7997	-219.347	30.9952	15.2459	-208.947	22.4589	-7.8632	-190.697	14.8514	-21.8573	-211.986	-9.21356	-15.4631	-195.113	2.29666	-34.5904	-175.757	22.9147	-26.0479	-197.186	-20.5285	-14.7641	-176.52	-7.6842	-30.0905	-159.706	19.9893	-14.1254	-182.718	-29.444	-4.68205	-167.079	-14.4639	-16.9023	-158.8	12.6673	-4.99409	-177.164	-34.5415	13.7469	-159.038	-22.0247	-1.66259	-157.465	3.7206	1.15726	-206.989	-32.911	43.9027	-214.425	-22.1155	65.6988	-230.939	-9.6358	43.1853	
260	2.16667	-224.138	20.1909	42.5662	-219.8	31.0446	15.1514	-210.053	25.6033	-6.38916	-193.499	18.0568	-20.1529	-210.167	-9.19504	-17.3148	-191.63	-1.29818	-31.3713	-174.191	23.4399	-25.5165	-197.675	-19.5672	-14.0763	-176.426	-6.83143	-30.1006	-159.105	19.8311	-15.1179	-186.699	-27.2683	-2.73531	-168.501	-13.4107	-17.8141	-157.282	9.67002	-6.00521	-173.043	-34.9825	8.76743	-161.434	-23.133	-3.02893	-156.354	5.48072	0.785966	-205.545	-32.0823	43.1839	-213.237	-23.5968	66.1294	-226.129	-12.0467	45.4694	
261	2.175	-223.339	21.2088	45.9069	-217.875	31.7516	15.8865	-208.609	24.7763	-8.04501	-194.103	18.423	-23.5949	-212.904	-5.10178	-18.9911	-190.871	5.27981	-34.2952	-170.898	21.9013	-22.3467	-196.637	-19.488	-15.8478	-172.224	-6.60993	-28.4824	-157.46	14.7225	-14.755	-184.117	-29.2404	-1.94333	-162.393	-13.5972	-16.2686	-156.509	10.6504	-5.5878	-175.183	-35.2511	12.1674	-159.834	-22.3515	-1.39801	-156.328	3.69034	2.97701	-206.09	-31.1425	38.2074	-212.475	-26.0458	63.8094	-230.602	-8.46602	43.8678	
262	2.18333	-222.503	21.2519	44.4276	-215.332	27.8103	15.8484	-208.97	28.7499	-4.00907	-193.523	19.5418	-27.8716	-208.629	-7.5547	-18.5431	-188.788	7.0754	-33.9935	-168.679	23.6242	-19.3653	-195.93	-18.7009	-13.7105	-172.783	-4.62224	-29.2132	-155.947	16.5234	-10.1815	-181.74	-28.6615	-4.14881	-161.312	-10.9575	-14.9117	-156.794	11.1352	-3.76426	-171.313	-37.0428	10.0411	-155.597	-18.9859	-0.812728	-153.261	1.91031	1.95663	-209.889	-28.8657	40.4953	-213.511	-24.4929	67.6107	-226.285	-10.3781	44.9374	
263	2.19167	-222.379	24.2772	42.7847	-214.906	31.0669	12.295	-207.438	28.5309	-9.45858	-195.482	21.1738	-27.0818	-208.98	-4.16527	-20.3569	-185.457	7.33648	-33.1243	-171.387	26.0778	-18.9133	-194.001	-17.9607	-14.8533	-168.069	-2.57702	-26.901	-156.876	20.1346	-3.7048	-183.2	-26.1076	-5.7278	-161.248	-12.4562	-13.6576	-157.784	12.2409	0.410229	-172.209	-34.463	10.9096	-157.204	-16.5759	-0.775157	-153.991	5.91103	7.83579	-205.511	-31.124	38.3911	-212.019	-23.5638	65.652	-227.826	-8.5042	38.9893	
264	2.2	-218.008	20.6134	43.3568	-210.414	30.5596	17.4853	-205.12	27.9548	-11.2196	-195.649	24.7294	-27.4992	-204.47	-6.17567	-19.2994	-186.313	7.81417	-32.4249	-170.489	25.8804	-14.0123	-187.355	-18.41	-17.3543	-167.224	0.684558	-24.4619	-160.19	20.9019	-0.977711	-179.347	-27.2452	-3.88129	-160.644	-6.68093	-11.9245	-159.384	12.4359	5.98989	-167.375	-34.544	8.39993	-154.676	-18.2503	0.793559	-157.095	3.23743	10.706	-206.786	-28.6381	36.3532	-211.494	-24.0176	61.4139	-227.118	-10.0366	42.1743	
265	2.20833	-217.676	20.7805	37.5056	-207.457	27.7157	16.1074	-204.015	29.3839	-8.19881	-194.973	22.9365	-27.4977	-203.157	-5.06721	-16.9882	-177.895	11.1281	-27.9969	-170.01	25.174	-7.38772	-187.853	-16.0685	-15.4649	-162.666	-1.52407	-20.4274	-160.55	19.2084	6.54303	-175.797	-23.8825	-6.94663	-154.913	-6.22175	-6.16986	-158.691	11.229	12.108	-166.908	-34.6827	9.67645	-152.701	-12.4663	4.98531	-158.823	5.38549	19.4098	-206.579	-32.1017	37.1645	-212.55	-26.6711	59.2764	-227.493	-9.01093	38.8527	
266	2.21667	-216.072	19.7453	36.3187	-206.191	24.9332	12.7038	-202.177	26.7034	-9.3966	-193.967	21.9655	-29.695	-199.373	-5.48814	-18.6514	-176.996	10.7366	-28.8225	-171.159	27.2566	-4.44004	-181.918	-17.4126	-15.1611	-159.235	3.07229	-16.8427	-164.246	19.8237	14.0285	-173.272	-23.6304	-5.91771	-153.931	-3.85129	-3.79146	-161.23	12.3614	22.5284	-163.206	-32.1358	7.31805	-149.115	-11.0258	7.14946	-160.761	6.04081	21.2193	-205.248	-33.0661	32.1514	-208.375	-27.412	60.5694	-224.613	-10.0188	38.6129	
267	2.225	-215.625	19.6031	35.9679	-207.163	27.4787	9.64353	-200.201	25.7919	-8.96073	-194.037	24.9145	-32.7695	-198.813	-3.88113	-21.0998	-173.365	14.731	-25.2918	-171.74	25.6202	3.29839	-178.452	-13.3515	-18.0625	-158.967	5.20053	-15.515	-167.324	20.9891	13.9079	-169.165	-24.7245	-3.78346	-153.278	1.35096	-0.782142	-161.718	12.1867	21.3928	-163.354	-31.1618	7.51454	-150.015	-10.0541	6.83496	-160.863	6.37136	22.5851	-200.923	-36.0723	33.3216	-207.33	-27.3649	60.8372	-221.828	-11.5928	37.9063	
268	2.23333	-216.638	21.0613	36.07	-205.624	25.6695	10.3772	-201.484	27.8911	-15.295	-193.276	26.9185	-30.8106	-196.036	1.07764	-25.4965	-174.274	14.3451	-28.1133	-172.386	26.8842	4.16977	-177.488	-13.1314	-17.4381	-156.856	8.75341	-10.652	-167.223	19.6487	13.6558	-166.363	-21.9892	-4.43749	-154.701	2.13994	-0.532975	-164.356	11.7957	20.539	-157.993	-31.9553	8.62963	-150.43	-8.50531	6.63196	-166.16	5.4033	24.3565	-201.455	-34.8183	32.1457	-209.486	-25.4532	59.4664	-221.362	-14.0683	33.5149	
269	2.24167	-217.553	24.4142	36.1984	-206.658	30.5807	7.35147	-199.969	29.266	-12.6227	-190.385	27.5372	-36.0148	-196.594	0.123201	-22.6859	-171.383	14.6176	-26.594	-172.167	28.9424	0.929956	-178.121	-14.2888	-15.1316	-156.737	6.87821	-14.009	-167.565	18.5957	14.9386	-167.172	-17.2466	-7.83679	-154.132	6.32859	1.631	-167.551	11.3999	26.9739	-160.248	-30.7147	9.16852	-149.283	-6.91627	8.60662	-162.335	6.13719	24.3221	-200.17	-31.1249	32.1976	-212.016	-23.96	56.0595	-222.914	-7.63656	35.301	
270	2.25	-213.91	20.3399	36.2516	-204.796	31.1365	6.58259	-197.745	31.3465	-14.6597	-188.239	30.0381	-32.9542	-194.6	0.137506	-24.7159	-169.241	13.8789	-25.6124	-169.364	28.2739	0.571943	-176.302	-9.627	-19.3584	-155.54	8.50827	-13.8003	-171.586	18.5131	16.3017	-166.871	-17.7583	-6.98682	-150.23	2.43697	0.512639	-169.427	12.9049	24.9587	-160.095	-29.4605	9.49266	-149.94	-7.07632	6.66836	-165.291	8.45858	27.9802	-199.746	-31.0781	30.8307	-208.242	-23.2488	56.154	-222.235	-10.3315	34.1444	
271	2.25833	-214.104	22.9595	33.7127	-203.355	33.3187	5.47537	-195.337	33.4231	-14.6294	-183.244	26.6582	-31.2562	-192.273	2.47929	-27.0093	-169.633	18.1572	-26.0869	-169.082	28.0152	3.68784	-173.516	-10.4497	-19.1785	-156.265	10.7126	-16.1807	-166.839	20.8596	12.8042	-167.447	-18.2918	-5.41442	-152.715	5.72879	-0.610846	-164.361	12.7923	23.6347	-159.755	-26.3597	8.01673	-148.36	-2.74987	11.7365	-167.107	6.33706	28.3336	-198.165	-31.9334	28.3502	-209.826	-22.4157	55.1111	-219.02	-8.09617	31.652	
272	2.26667	-212.94	26.2377	34.7238	-200.867	32.0242	9.83679	-192.017	31.2101	-17.7052	-181.827	29.5966	-30.56	-190.98	-1.20722	-23.7957	-169.089	14.8984	-27.9195	-164.892	26.1174	-0.306626	-173.681	-11.7537	-19.4808	-152.821	8.40761	-11.0942	-165.362	20.1909	11.774	-164.56	-17.7323	-7.61945	-151.12	2.2623	-3.28159	-164.014	14.0116	21.0221	-159.928	-30.0719	9.18998	-147.043	-6.28005	10.2813	-159.97	5.94313	26.3083	-200.325	-30.7993	32.0952	-211.766	-20.3107	55.7912	-219.79	-5.20623	32.896	
